<mxfile host="app.diagrams.net" modified="2023-07-25T19:59:27.347Z" agent="Mozilla/5.0 (Windows NT 10.0; Win64; x64) AppleWebKit/537.36 (KHTML, like Gecko) Chrome/114.0.0.0 Safari/537.36" version="21.6.5" etag="Z4X_Y_FeatqSVOBJ-yyK" type="github">
  <diagram name="Page-1" id="KDOwnLo-XFi4Ro7vlEnD">
    <mxGraphModel>
      <root>
        <mxCell id="0" />
        <mxCell id="1" parent="0" />
      </root>
    </mxGraphModel>
  </diagram>
</mxfile>
